<svg width="60" height="60" viewBox="0 0 60 60" fill="none" xmlns="http://www.w3.org/2000/svg">
<path d="M30 59.0323C46.0341 59.0323 59.0323 46.0341 59.0323 30C59.0323 13.9659 46.0341 0.967743 30 0.967743C13.966 0.967743 0.967773 13.9659 0.967773 30C0.967773 46.0341 13.966 59.0323 30 59.0323Z" stroke="#E8C300"/>
<path d="M28.0078 40V31.0547H25V27.5H28.0078V24.6875C28.0078 23.2031 28.4244 22.0573 29.2578 21.25C30.0911 20.4167 31.1979 20 32.5781 20C33.6979 20 34.6093 20.0521 35.3124 20.1562V23.3203H33.4374C32.7343 23.3203 32.2526 23.4765 31.9921 23.789C31.7838 24.0495 31.6796 24.4661 31.6796 25.039V27.5H35L34.5312 31.0547H31.6796V40H28.0078Z" fill="#E8C300"/>
</svg>
