<svg width="60" height="60" viewBox="0 0 60 60" fill="none" xmlns="http://www.w3.org/2000/svg">
<path d="M30 59.0323C46.0341 59.0323 59.0323 46.0341 59.0323 30C59.0323 13.9659 46.0341 0.967743 30 0.967743C13.966 0.967743 0.967773 13.9659 0.967773 30C0.967773 46.0341 13.966 59.0323 30 59.0323Z" stroke="#E8C300"/>
<path d="M29.75 25.2578C28.9427 25.2578 28.1875 25.4661 27.4844 25.8828C26.8073 26.2734 26.2604 26.8203 25.8438 27.5234C25.4531 28.2005 25.2578 28.9427 25.2578 29.75C25.2578 30.5573 25.4531 31.3125 25.8438 32.0156C26.2604 32.6927 26.8073 33.2396 27.4844 33.6562C28.1875 34.0469 28.9427 34.2422 29.75 34.2422C30.5573 34.2422 31.2995 34.0469 31.9766 33.6562C32.6797 33.2396 33.2266 32.6927 33.6172 32.0156C34.0339 31.3125 34.2422 30.5573 34.2422 29.75C34.2422 28.9427 34.0339 28.2005 33.6172 27.5234C33.2266 26.8203 32.6797 26.2734 31.9766 25.8828C31.2995 25.4661 30.5573 25.2578 29.75 25.2578ZM29.75 32.6797C28.9427 32.6797 28.2526 32.3932 27.6797 31.8203C27.1068 31.2474 26.8203 30.5573 26.8203 29.75C26.8203 28.9427 27.1068 28.2526 27.6797 27.6797C28.2526 27.1068 28.9427 26.8203 29.75 26.8203C30.5573 26.8203 31.2474 27.1068 31.8203 27.6797C32.3932 28.2526 32.6797 28.9427 32.6797 29.75C32.6797 30.5573 32.3932 31.2474 31.8203 31.8203C31.2474 32.3932 30.5573 32.6797 29.75 32.6797ZM35.4922 25.0625C35.4661 25.3489 35.349 25.5963 35.1406 25.8047C34.9583 26.013 34.724 26.1172 34.4375 26.1172C34.151 26.1172 33.9036 26.013 33.6953 25.8047C33.487 25.5963 33.3828 25.3489 33.3828 25.0625C33.3828 24.776 33.487 24.5286 33.6953 24.3203C33.9036 24.112 34.151 24.0078 34.4375 24.0078C34.724 24.0078 34.9714 24.112 35.1797 24.3203C35.388 24.5286 35.4922 24.776 35.4922 25.0625ZM38.4609 26.1172C38.4089 25.362 38.2917 24.7109 38.1094 24.164C37.875 23.513 37.5104 22.9531 37.0156 22.4844C36.5469 21.9896 35.987 21.625 35.3359 21.3906C34.7891 21.2083 34.138 21.1042 33.3828 21.0781C32.6536 21.026 31.4427 21 29.75 21C28.0573 21 26.8333 21.026 26.0781 21.0781C25.349 21.1042 24.7109 21.2083 24.1641 21.3906C23.513 21.625 22.9401 21.9896 22.4453 22.4844C21.9766 22.9531 21.625 23.513 21.3906 24.164C21.2083 24.7109 21.0911 25.362 21.0391 26.1172C21.013 26.8463 21 28.0573 21 29.75C21 31.4427 21.013 32.6667 21.0391 33.4219C21.0911 34.151 21.2083 34.789 21.3906 35.3359C21.625 35.987 21.9766 36.5599 22.4453 37.0547C22.9401 37.5234 23.513 37.862 24.1641 38.0703C24.7109 38.2786 25.349 38.3958 26.0781 38.4219C26.8333 38.4739 28.0573 38.5 29.75 38.5C31.4427 38.5 32.6536 38.4739 33.3828 38.4219C34.138 38.3958 34.7891 38.2917 35.3359 38.1094C35.987 37.875 36.5469 37.5234 37.0156 37.0547C37.5104 36.5599 37.875 35.987 38.1094 35.3359C38.2917 34.789 38.3958 34.151 38.4219 33.4219C38.474 32.6667 38.5 31.4427 38.5 29.75C38.5 28.0573 38.487 26.8463 38.4609 26.1172ZM36.5859 34.9062C36.2734 35.6875 35.7135 36.2474 34.9062 36.5859C34.4896 36.7422 33.7865 36.8463 32.7969 36.8984C32.25 36.9245 31.4427 36.9375 30.375 36.9375H29.125C28.0833 36.9375 27.276 36.9245 26.7031 36.8984C25.7396 36.8463 25.0365 36.7422 24.5938 36.5859C23.8125 36.2734 23.2526 35.7135 22.9141 34.9062C22.7578 34.4635 22.6536 33.7604 22.6016 32.7969C22.5755 32.2239 22.5625 31.4167 22.5625 30.375V29.125C22.5625 28.0833 22.5755 27.276 22.6016 26.7031C22.6536 25.7135 22.7578 25.0104 22.9141 24.5937C23.2266 23.7864 23.7865 23.2265 24.5938 22.914C25.0365 22.7578 25.7396 22.6536 26.7031 22.6015C27.276 22.5755 28.0833 22.5625 29.125 22.5625H30.375C31.4167 22.5625 32.224 22.5755 32.7969 22.6015C33.7865 22.6536 34.4896 22.7578 34.9062 22.914C35.7135 23.2265 36.2734 23.7864 36.5859 24.5937C36.7422 25.0104 36.8464 25.7135 36.8984 26.7031C36.9245 27.25 36.9375 28.0573 36.9375 29.125V30.375C36.9375 31.4167 36.9245 32.2239 36.8984 32.7969C36.8464 33.7604 36.7422 34.4635 36.5859 34.9062Z" fill="#E8C300"/>
</svg>
