<svg width="60" height="60" viewBox="0 0 60 60" fill="none" xmlns="http://www.w3.org/2000/svg">
<path d="M30 59.0323C46.0341 59.0323 59.0323 46.0341 59.0323 30C59.0323 13.9659 46.0341 0.967743 30 0.967743C13.966 0.967743 0.967773 13.9659 0.967773 30C0.967773 46.0341 13.966 59.0323 30 59.0323Z" stroke="#E8C300"/>
<path d="M37.6741 27.0207C37.6992 27.1216 37.7119 27.2853 37.7119 27.5121C37.7119 29.3267 37.2708 31.0782 36.3888 32.7667C35.4816 34.5559 34.2089 35.9799 32.5707 37.0383C30.7814 38.2228 28.7275 38.8151 26.409 38.8151C24.1912 38.8151 22.1624 38.2228 20.3228 37.0383C20.6 37.0636 20.915 37.0761 21.2679 37.0761C23.1075 37.0761 24.7582 36.5091 26.22 35.375C25.3379 35.375 24.5566 35.123 23.8762 34.6189C23.2209 34.0898 22.7673 33.4345 22.5153 32.6533C22.7673 32.6784 23.0067 32.6911 23.2335 32.6911C23.5864 32.6911 23.9392 32.6533 24.292 32.5777C23.3848 32.376 22.6287 31.9098 22.0239 31.179C21.419 30.4482 21.1166 29.6165 21.1166 28.684V28.6084C21.671 28.9361 22.2633 29.1124 22.8933 29.1377C22.3641 28.7597 21.9357 28.2808 21.608 27.7011C21.2804 27.1216 21.1166 26.4915 21.1166 25.811C21.1166 25.1054 21.3056 24.4375 21.6836 23.8075C22.6665 25.0424 23.8636 26.0252 25.2749 26.756C26.7114 27.487 28.2361 27.8901 29.849 27.9657C29.7986 27.6633 29.7733 27.3609 29.7733 27.0585C29.7733 26.3529 29.9498 25.6976 30.3026 25.0928C30.6554 24.4628 31.1343 23.9713 31.7391 23.6185C32.344 23.2657 32.9992 23.0893 33.7048 23.0893C34.2845 23.0893 34.8137 23.2027 35.2926 23.4294C35.7966 23.6563 36.2376 23.9587 36.6156 24.3367C37.5228 24.1604 38.3671 23.8453 39.1483 23.3917C38.8459 24.3241 38.2663 25.0549 37.4094 25.5842C38.1655 25.4834 38.9216 25.2692 39.6776 24.9415C39.1232 25.748 38.4553 26.441 37.6741 27.0207Z" fill="#E8C300"/>
</svg>
